<svg xmlns="http://www.w3.org/2000/svg" xmlns:xlink="http://www.w3.org/1999/xlink" width="500" zoomAndPan="magnify" viewBox="0 0 375 374.999991" height="500" preserveAspectRatio="xMidYMid meet" version="1.0"><path fill="#3cad6e" d="M 219.382812 40.320312 C 218.761719 40.757812 218.925781 41.652344 219.78125 42.460938 C 221.5 44.082031 226.25 50.066406 228.238281 53.109375 C 234.554688 62.773438 232.757812 73.207031 223.816406 78.785156 C 222.542969 79.578125 218.941406 81.347656 215.25 82.988281 C 198.539062 90.417969 188.65625 99.222656 181.296875 113.230469 C 177.289062 120.859375 175.589844 126.59375 175.675781 132.226562 L 175.710938 134.617188 L 174.179688 133.015625 C 173.339844 132.136719 172.582031 131.316406 172.496094 131.195312 C 171.375 129.613281 161.367188 120.746094 155.980469 116.558594 C 131.523438 97.550781 111.488281 89.03125 95.410156 90.789062 C 89.578125 91.429688 89.257812 91.6875 74.902344 107.523438 C 70.136719 112.78125 58.640625 124.171875 47.851562 134.332031 C 46 136.074219 42.421875 139.542969 39.894531 142.039062 C 37.371094 144.53125 34.863281 146.984375 34.328125 147.484375 C 33.789062 147.988281 31.886719 149.808594 30.101562 151.539062 C 26.140625 155.375 25.898438 155.582031 24.40625 156.425781 C 21.378906 158.140625 20.253906 159.929688 21.953125 160.339844 C 22.425781 160.453125 22.664062 160.457031 22.847656 160.359375 C 23.105469 160.21875 25.992188 158.074219 26.578125 157.582031 C 27.988281 156.402344 38.929688 151.796875 45.46875 149.625 C 49.285156 148.359375 54.34375 147.046875 58.378906 146.273438 C 60.503906 145.863281 64.261719 145.269531 64.449219 145.308594 C 64.679688 145.359375 61.816406 147.332031 58.132812 149.660156 C 54.398438 152.019531 41.558594 160.480469 36.652344 163.816406 C 24.625 171.988281 13.257812 181.609375 4.242188 191.25 C 1.621094 194.046875 1.132812 194.808594 1.449219 195.574219 C 1.839844 196.515625 2.234375 196.445312 5.867188 194.796875 C 10.414062 192.730469 14.207031 191.128906 19.390625 189.085938 L 20.003906 188.84375 L 19.625 189.253906 C 14.449219 194.789062 0.351562 211.929688 0.167969 212.90625 C -0.0234375 213.925781 0.492188 214.46875 1.191406 213.976562 C 1.726562 213.597656 4.429688 212.003906 6.601562 210.777344 C 7.710938 210.152344 8.855469 209.507812 9.140625 209.347656 C 9.425781 209.183594 9.660156 209.070312 9.660156 209.097656 C 9.660156 209.125 9.117188 210.296875 8.453125 211.707031 C 5.140625 218.722656 5.417969 219.539062 10.703125 218.296875 C 14.246094 217.464844 14.160156 217.484375 26.585938 214.945312 L 28.273438 214.601562 L 27.964844 214.984375 C 23.242188 220.855469 21.039062 228.855469 22.34375 235.378906 C 23.050781 238.914062 26.308594 245.082031 28.664062 247.339844 C 28.984375 247.648438 31.777344 248.808594 42.710938 253.179688 L 56.359375 258.632812 L 55.015625 258.636719 C 52.84375 258.636719 44.03125 259.125 43.589844 259.265625 C 42.992188 259.457031 42.957031 259.6875 42.957031 263.121094 C 42.957031 265.996094 42.980469 266.347656 43.257812 267.550781 C 44.378906 272.441406 44.566406 278.132812 43.75 282.582031 C 42.996094 286.683594 40.222656 295.292969 39.15625 296.828125 C 38.28125 298.089844 38.0625 299.71875 38.6875 300.316406 C 39.742188 301.320312 56.917969 306.515625 86.226562 314.699219 C 87.238281 314.980469 90.925781 316.007812 94.425781 316.980469 C 98.476562 318.109375 101.386719 318.992188 102.445312 319.40625 C 116.328125 324.886719 143.796875 332.40625 159.917969 335.140625 C 173.617188 337.464844 178.671875 336.734375 185.773438 331.386719 C 186.804688 330.609375 186.589844 330.675781 191.808594 329.503906 C 195.019531 328.78125 208.320312 325.492188 213.472656 324.140625 C 238.472656 317.601562 248.472656 315.1875 260.722656 312.742188 C 269.480469 310.992188 274.347656 310.144531 296.46875 306.5 C 317.898438 302.96875 331.078125 299.71875 341.867188 295.304688 C 350.636719 291.714844 351.207031 290.957031 350.933594 283.28125 C 350.609375 274.257812 350.164062 271.523438 348.050781 265.644531 C 345.476562 258.488281 344.578125 257.757812 333.128906 253.5625 C 329.171875 252.109375 325.558594 250.605469 323.261719 249.449219 C 322.335938 248.984375 322.328125 248.980469 322.269531 248.425781 C 322.214844 247.941406 322.109375 247.777344 321.414062 247.101562 C 318.613281 244.378906 315.921875 239.566406 314.835938 235.339844 C 313.300781 229.386719 314.109375 223.253906 317.964844 211.601562 L 318.644531 209.550781 L 320.808594 209.542969 C 324.121094 209.535156 324.558594 209.265625 324.46875 207.285156 C 324.417969 206.125 324.023438 205.054688 322.847656 202.882812 L 322.082031 201.472656 L 322.527344 201.476562 C 322.769531 201.476562 323.550781 201.53125 324.253906 201.597656 C 324.960938 201.660156 327.21875 201.796875 329.273438 201.898438 C 337.355469 202.300781 343.386719 203.21875 353.382812 205.566406 C 354.691406 205.875 357.335938 206.429688 359.257812 206.800781 C 361.179688 207.171875 363.578125 207.667969 364.589844 207.90625 C 368.285156 208.773438 368.675781 208.835938 370.035156 208.792969 C 372.289062 208.726562 373.089844 208.066406 373.09375 206.277344 C 373.097656 204.8125 372.535156 203.589844 369.5625 198.605469 C 368.679688 197.128906 367.972656 195.902344 367.992188 195.886719 C 368.011719 195.867188 369.152344 196.355469 370.53125 196.96875 C 373.976562 198.503906 374.9375 198.535156 374.929688 197.101562 C 374.917969 194.570312 367.164062 185.1875 359.078125 177.90625 C 352.464844 171.953125 347.121094 167.675781 340.414062 162.972656 C 339.371094 162.242188 337.722656 161.042969 336.75 160.3125 C 335.777344 159.578125 334.816406 158.890625 334.613281 158.789062 L 334.242188 158.59375 L 335.339844 158.199219 C 343.238281 155.328125 350.847656 149.894531 352.957031 145.621094 C 354.167969 143.171875 353.621094 142.597656 349.960938 142.457031 C 344.554688 142.246094 340.28125 140.851562 332.953125 136.910156 C 325.707031 133.007812 319.351562 129.9375 311.769531 126.675781 C 309.425781 125.667969 307.566406 124.84375 303.992188 123.21875 C 301.046875 121.878906 296.125 119.335938 293.101562 117.585938 C 289.191406 115.324219 281.007812 110.375 279.570312 109.398438 L 277.789062 108.191406 L 277.316406 107.058594 C 274.476562 100.277344 270.503906 94.988281 259.316406 83.101562 C 253.007812 76.398438 247.960938 70.640625 237.417969 58.132812 C 231.53125 51.144531 227.113281 46.347656 223.265625 42.75 C 220.429688 40.101562 220.042969 39.859375 219.382812 40.320312 M 234.285156 57.640625 C 235.328125 58.878906 237.3125 61.21875 238.691406 62.835938 C 240.074219 64.457031 241.640625 66.304688 242.179688 66.941406 C 246.261719 71.808594 252.101562 78.402344 256.367188 82.96875 C 263.101562 90.167969 264.847656 92.089844 267.0625 94.730469 C 270.253906 98.539062 273.175781 102.910156 274.753906 106.238281 C 275.125 107.011719 275.503906 107.789062 275.597656 107.960938 C 277.074219 110.65625 277.960938 116.695312 277.378906 120.101562 C 276.269531 126.582031 272.59375 131.335938 260.785156 141.558594 C 250.851562 150.160156 246.40625 153.589844 235.507812 161.050781 C 220.503906 171.328125 214.015625 177.007812 209.421875 183.890625 C 206.382812 188.4375 205.167969 191.894531 202.878906 202.480469 C 202.414062 204.617188 202 206.324219 201.957031 206.273438 C 201.914062 206.226562 201.542969 205.191406 201.132812 203.980469 C 200.722656 202.769531 199.523438 199.269531 198.472656 196.207031 C 197.417969 193.144531 195.632812 187.882812 194.503906 184.515625 C 191.972656 176.980469 189.125 168.726562 187.152344 163.21875 C 180.796875 145.457031 179.441406 141.597656 178.628906 138.921875 C 176.449219 131.765625 177.46875 125.328125 182.3125 115.660156 C 189.273438 101.773438 199.550781 92.160156 214.636719 85.433594 C 223.058594 81.675781 225.195312 80.546875 227.617188 78.566406 C 234.066406 73.296875 235.773438 63.476562 231.691406 55.128906 L 231.214844 54.148438 L 231.800781 54.769531 C 232.121094 55.109375 233.238281 56.402344 234.285156 57.640625 M 104.652344 92.78125 C 115.808594 94.175781 127.71875 99.382812 142.351562 109.269531 C 154.71875 117.621094 164.46875 125.6875 172.367188 134.101562 C 176.101562 138.082031 176.535156 138.632812 176.871094 139.816406 C 177.347656 141.492188 178.835938 145.796875 181.980469 154.589844 C 187.539062 170.140625 189.632812 176.160156 193.949219 188.984375 C 196.125 195.453125 198.328125 201.875 199.199219 204.289062 C 199.503906 205.128906 199.683594 205.730469 199.605469 205.628906 C 199.523438 205.527344 199.101562 204.972656 198.667969 204.402344 C 174.851562 173.183594 134.613281 149.152344 97.246094 143.828125 C 73.8125 140.488281 55.304688 142.90625 33.234375 152.191406 C 32.5 152.5 31.878906 152.734375 31.851562 152.707031 C 31.828125 152.679688 32.925781 151.621094 34.289062 150.355469 C 35.65625 149.085938 38.921875 145.925781 41.546875 143.328125 C 44.175781 140.734375 47.835938 137.179688 49.6875 135.433594 C 61.683594 124.125 71.339844 114.507812 77.414062 107.832031 C 87.542969 96.695312 89.726562 94.527344 91.714844 93.632812 C 94.183594 92.519531 99.683594 92.160156 104.652344 92.78125 M 279.550781 111.847656 C 279.933594 112.105469 281.625 113.132812 283.308594 114.132812 C 284.992188 115.128906 287.324219 116.519531 288.492188 117.214844 C 295.796875 121.59375 301.464844 124.425781 311.464844 128.699219 C 317.835938 131.421875 322.183594 133.511719 329.863281 137.542969 C 340.257812 142.996094 344.476562 144.429688 350.15625 144.429688 C 350.792969 144.429688 351.308594 144.457031 351.308594 144.496094 C 351.308594 144.894531 349.199219 147.363281 347.75 148.667969 C 341.316406 154.4375 332.097656 158.207031 322.050781 159.175781 C 316.226562 159.738281 311.296875 159.5625 299.527344 158.382812 C 286.734375 157.101562 280.652344 156.980469 271.988281 157.84375 C 258.359375 159.195312 246.558594 163.472656 236.730469 170.617188 C 223.109375 180.523438 211.433594 196.039062 207.550781 209.394531 C 206.445312 213.199219 206.476562 214.628906 207.660156 214.628906 C 208.371094 214.628906 208.496094 214.472656 208.527344 213.550781 C 208.671875 209.089844 214.050781 198.019531 219.785156 190.382812 C 232.929688 172.875 248.929688 162.960938 268.445312 160.230469 C 273.878906 159.46875 276.515625 159.300781 282.820312 159.308594 C 289.082031 159.3125 289.949219 159.367188 299.035156 160.277344 C 314.992188 161.878906 322.902344 161.734375 330.53125 159.6875 L 331.605469 159.398438 L 332.664062 159.992188 C 333.246094 160.320312 334.472656 161.15625 335.386719 161.851562 C 336.300781 162.546875 337.902344 163.710938 338.945312 164.445312 C 351.246094 173.058594 362.636719 183.214844 368.742188 191.003906 C 370.148438 192.800781 371.898438 195.242188 371.832031 195.308594 C 371.808594 195.335938 370.304688 194.703125 368.492188 193.902344 C 366.683594 193.105469 364.210938 192.023438 363 191.5 C 361.785156 190.976562 358.453125 189.515625 355.59375 188.25 C 331.652344 177.667969 319.617188 174.265625 301.855469 173.050781 C 298.890625 172.847656 288.640625 172.847656 285.878906 173.050781 C 257.886719 175.101562 237.59375 183.199219 223.222656 198.050781 C 218.136719 203.304688 212.96875 210.710938 212.183594 213.867188 C 211.851562 215.199219 213.484375 215.527344 213.964844 214.222656 C 215.089844 211.179688 220.296875 204.054688 224.75 199.460938 C 238.664062 185.105469 257.632812 177.371094 284.59375 175.070312 C 287.765625 174.796875 299.152344 174.757812 302.34375 175.003906 C 319.386719 176.328125 331.320312 179.699219 353.3125 189.40625 C 355.382812 190.320312 357.15625 191.066406 357.25 191.066406 C 357.347656 191.066406 357.429688 191.164062 357.429688 191.28125 C 357.433594 191.566406 359.109375 195.03125 359.269531 195.085938 C 359.339844 195.109375 359.773438 195.691406 360.234375 196.371094 C 360.691406 197.054688 361.769531 198.605469 362.625 199.816406 C 363.480469 201.027344 364.132812 202.03125 364.074219 202.050781 C 364.015625 202.070312 362.316406 201.613281 360.300781 201.039062 C 349.632812 197.988281 342.523438 196.785156 330.925781 196.058594 C 327.683594 195.855469 313.398438 195.855469 309.015625 196.058594 C 293.945312 196.761719 283.757812 197.574219 264.886719 199.582031 C 244.5625 201.742188 236.605469 202.785156 226.019531 204.667969 C 223.230469 205.164062 222.273438 206.292969 221.785156 209.671875 C 220.964844 215.335938 217.898438 217.679688 210.71875 218.117188 C 202.679688 218.609375 194.585938 216.769531 191.691406 213.785156 L 191.148438 213.226562 L 191.40625 212.949219 C 191.800781 212.519531 191.988281 211.742188 191.835938 211.148438 C 191.769531 210.875 191.734375 210.652344 191.765625 210.652344 C 192.050781 210.652344 196.035156 214.203125 196.148438 214.558594 C 196.34375 215.167969 197.328125 215.207031 197.859375 214.628906 C 198.074219 214.394531 198.339844 214.203125 198.449219 214.203125 C 198.941406 214.203125 198.847656 213.40625 198.203125 212.082031 C 189.570312 194.425781 149.859375 176.585938 112.609375 173.628906 C 87.082031 171.601562 48.105469 176.761719 23.492188 185.425781 C 20.492188 186.480469 12.519531 189.679688 8.769531 191.335938 C 7.234375 192.011719 5.953125 192.542969 5.925781 192.515625 C 5.851562 192.4375 12.996094 185.347656 14.863281 183.644531 C 23.871094 175.425781 31.515625 169.585938 44.363281 161.105469 C 54.183594 154.621094 57.023438 152.765625 60.007812 150.867188 C 63.21875 148.824219 64.675781 147.835938 67.65625 145.683594 L 68.917969 144.773438 L 70.167969 144.660156 C 81.222656 143.683594 97.039062 145.09375 109.414062 148.160156 C 136.941406 154.984375 167.121094 172.75 186.804688 193.710938 C 192.523438 199.800781 199.636719 208.542969 200.714844 210.800781 C 201.101562 211.609375 201.3125 211.703125 202.308594 211.515625 C 203.378906 211.3125 203.820312 210.765625 203.460938 210.085938 C 203.195312 209.570312 206.085938 196.535156 207.308594 192.738281 C 210.417969 183.097656 217.683594 175.6875 236.882812 162.585938 C 248.46875 154.683594 256.1875 148.597656 266.601562 139.164062 C 275.742188 130.882812 279.125 125.417969 279.527344 118.277344 C 279.636719 116.335938 279.167969 112.128906 278.773438 111.488281 C 278.644531 111.28125 278.851562 111.375 279.550781 111.847656 M 225.566406 114.679688 C 219.796875 116.597656 212.242188 121.199219 207.371094 125.757812 C 205.480469 127.527344 205.332031 127.71875 205.34375 128.410156 C 205.363281 129.699219 206.160156 129.574219 207.855469 128.015625 C 213.402344 122.914062 221.03125 118.152344 226.265625 116.523438 C 228.078125 115.960938 228.128906 115.933594 228.214844 115.480469 C 228.46875 114.128906 227.820312 113.929688 225.566406 114.679688 M 99.246094 121.863281 C 98.828125 121.976562 98.828125 123.140625 99.246094 123.359375 C 99.355469 123.417969 100 123.503906 100.671875 123.550781 C 109.238281 124.140625 116.960938 126.074219 123.539062 129.277344 C 126.726562 130.828125 127.117188 130.902344 127.339844 129.984375 C 127.546875 129.125 127.402344 129 124.832031 127.710938 C 120.402344 125.492188 117.476562 124.46875 112.300781 123.328125 C 107.480469 122.265625 100.628906 121.496094 99.246094 121.863281 M 235.628906 122.605469 C 234.867188 122.886719 226.253906 128.222656 223.511719 130.109375 C 214.972656 135.988281 206.777344 143.808594 200.585938 151.984375 C 199.445312 153.492188 199.230469 154.359375 199.914062 154.726562 C 200.464844 155.019531 200.941406 154.757812 201.726562 153.722656 C 209.949219 142.925781 219.648438 134.488281 233.089844 126.441406 C 237.363281 123.886719 237.160156 124.039062 237.160156 123.320312 C 237.160156 122.582031 236.507812 122.277344 235.628906 122.605469 M 254.234375 126.839844 C 247.542969 129.59375 235.355469 137.765625 226.976562 145.121094 C 218.699219 152.386719 208.34375 164.113281 206.667969 168.121094 C 206.035156 169.640625 207.636719 170.113281 208.515625 168.667969 C 209.0625 167.761719 211.207031 164.875 212.78125 162.914062 C 223.960938 148.980469 238.527344 137 253.480469 129.433594 C 256.03125 128.144531 256.167969 128.023438 256.011719 127.195312 C 255.886719 126.515625 255.304688 126.398438 254.234375 126.839844 M 91.59375 130.226562 C 91.277344 130.355469 91.128906 130.917969 91.296875 131.359375 C 91.4375 131.730469 91.675781 131.789062 94.613281 132.195312 C 101.460938 133.132812 110.753906 135.140625 117.199219 137.070312 C 132.054688 141.515625 142.660156 147.320312 156.101562 158.359375 C 157.03125 159.121094 157.957031 159.804688 158.15625 159.875 C 159.640625 160.390625 159.988281 158.9375 158.65625 157.796875 C 142.875 144.246094 127.4375 136.746094 106.058594 132.246094 C 100 130.972656 92.386719 129.910156 91.59375 130.226562 M 108.628906 175.269531 C 125.378906 176.347656 139.878906 179.390625 155.027344 185.007812 C 174.074219 192.070312 187.988281 200.863281 194.644531 210.039062 L 195.046875 210.589844 L 194.460938 210.117188 C 184.023438 201.691406 168.128906 195.359375 147.703125 191.496094 C 127.707031 187.710938 97.386719 186.339844 76.191406 188.257812 C 52.414062 190.410156 22.222656 199.230469 6.179688 208.707031 C 5.539062 209.082031 5.480469 209.164062 8.667969 205.265625 C 13.902344 198.859375 17.992188 194.109375 22.867188 188.765625 C 24.355469 187.136719 24.007812 187.316406 28.511719 185.828125 C 39.257812 182.273438 52.0625 179.640625 70.558594 177.183594 C 84.566406 175.320312 98.496094 174.621094 108.628906 175.269531 M 111.140625 189.589844 C 143.03125 191.035156 168.359375 196.574219 183.910156 205.515625 C 187.054688 207.324219 187.792969 207.804688 186.699219 207.335938 C 184.960938 206.589844 178.480469 204.511719 175.46875 203.734375 C 171.234375 202.640625 168.96875 202.179688 165.183594 201.648438 C 164.039062 201.492188 161.910156 201.113281 160.453125 200.8125 C 147.03125 198.050781 134.972656 196.941406 120.074219 197.105469 C 116.472656 197.144531 112.148438 197.257812 110.464844 197.359375 C 108.78125 197.457031 105.78125 197.601562 103.792969 197.675781 C 92.132812 198.105469 87.078125 198.582031 67.621094 201.105469 C 60.765625 201.992188 43.722656 204.613281 36.539062 205.882812 C 30.597656 206.933594 24.351562 208.289062 18.171875 209.867188 C 17.03125 210.160156 16.074219 210.375 16.046875 210.34375 C 15.929688 210.226562 17.414062 207.429688 18.378906 205.953125 L 19.410156 204.378906 L 21.359375 203.589844 C 40.46875 195.859375 64.097656 190.636719 84.636719 189.597656 C 86.050781 189.527344 87.566406 189.449219 88.003906 189.425781 C 89.71875 189.335938 108.425781 189.46875 111.140625 189.589844 M 308.355469 198.570312 C 308.949219 199.53125 310.230469 202.070312 310.160156 202.144531 C 309.8125 202.488281 308.144531 202.511719 283.675781 202.480469 C 270.007812 202.464844 258.636719 202.40625 258.40625 202.355469 C 257.574219 202.167969 279.660156 199.933594 290.714844 199.089844 C 296.34375 198.65625 305.363281 198.101562 307.300781 198.066406 L 308.035156 198.050781 L 308.355469 198.570312 M 123.074219 203.429688 C 139.953125 204.082031 154.726562 206.398438 170.203125 210.808594 L 172.527344 211.472656 L 168.550781 212.765625 C 161.019531 215.21875 154.441406 217.183594 147.496094 219.058594 C 146.855469 219.230469 145.972656 219.472656 145.535156 219.597656 C 138.0625 221.699219 124.28125 224.71875 117.910156 225.65625 C 112.078125 226.511719 108.921875 225.582031 89.226562 217.207031 C 87.375 216.417969 82.722656 214.480469 78.882812 212.898438 C 70.3125 209.359375 66.632812 207.796875 66.777344 207.753906 C 67.09375 207.65625 73.164062 206.582031 74.90625 206.316406 C 83.777344 204.953125 94.410156 203.960938 104.527344 203.550781 C 110.40625 203.316406 118.691406 203.257812 123.074219 203.429688 M 292.0625 208.574219 C 294.25 208.640625 299.976562 208.863281 304.792969 209.0625 C 309.605469 209.261719 314 209.425781 314.554688 209.425781 C 315.109375 209.425781 315.5625 209.457031 315.5625 209.492188 C 315.5625 209.53125 315.457031 209.769531 315.328125 210.023438 C 309.3125 221.8125 308.695312 235.480469 313.816406 243.300781 C 314.050781 243.65625 314.386719 243.574219 309.933594 244.25 C 307.878906 244.5625 299.175781 245.917969 290.59375 247.265625 C 282.007812 248.609375 270.386719 250.425781 264.765625 251.300781 C 259.140625 252.175781 245.234375 254.347656 233.855469 256.128906 C 210.324219 259.808594 193.09375 262.5 181.707031 264.277344 C 177.398438 264.953125 169.824219 266.136719 164.878906 266.910156 C 153.414062 268.703125 128.410156 272.605469 121.789062 273.636719 C 118.992188 274.070312 116.621094 274.449219 116.511719 274.472656 C 116.082031 274.574219 113.964844 266.628906 112.980469 261.230469 C 110.957031 250.125 111.097656 241.257812 113.40625 234.644531 C 114.121094 232.597656 113.984375 232.738281 115.386719 232.648438 C 117.152344 232.539062 120.042969 231.921875 127.542969 230.054688 C 129.597656 229.542969 134.5 228.355469 138.4375 227.410156 C 147.824219 225.160156 153.648438 223.695312 163.269531 221.164062 C 167.621094 220.023438 173.859375 218.417969 177.132812 217.601562 L 183.085938 216.121094 L 184.84375 217.101562 C 185.8125 217.644531 187.320312 218.488281 188.195312 218.980469 C 193.378906 221.894531 198.117188 223.558594 204.660156 224.75 C 213.699219 226.402344 222.023438 222.34375 226.226562 214.242188 C 226.566406 213.578125 227.066406 212.699219 227.332031 212.285156 L 227.8125 211.527344 L 228.628906 211.394531 C 235.417969 210.296875 252.898438 209.023438 267.210938 208.582031 C 271.78125 208.4375 287.578125 208.4375 292.0625 208.574219 M 54.855469 210.765625 C 55.480469 211.097656 56.304688 211.457031 56.6875 211.566406 C 57.070312 211.675781 58.503906 212.320312 59.871094 212.996094 C 63.457031 214.773438 66.214844 216.066406 70.867188 218.148438 C 87.3125 225.511719 92.96875 227.753906 100.371094 229.851562 C 104.464844 231.011719 110.644531 232.441406 111.5625 232.441406 C 112.035156 232.441406 112.03125 232.59375 111.511719 234.121094 C 109.253906 240.761719 109.050781 249.753906 110.90625 260.71875 C 111.589844 264.761719 112.800781 269.816406 113.855469 273.058594 C 114.058594 273.683594 114.199219 274.222656 114.171875 274.253906 C 114.140625 274.28125 113.183594 273.914062 112.046875 273.4375 C 110.90625 272.960938 109.535156 272.386719 108.996094 272.164062 C 108.457031 271.941406 106.363281 271.070312 104.34375 270.230469 C 102.324219 269.390625 99.183594 268.085938 97.367188 267.328125 C 95.550781 266.574219 93.238281 265.609375 92.226562 265.183594 C 91.214844 264.757812 84.277344 261.871094 76.800781 258.761719 C 69.328125 255.652344 62.71875 252.898438 62.113281 252.640625 C 61 252.171875 56.441406 250.269531 55.199219 249.757812 C 54.828125 249.605469 52.871094 248.792969 50.851562 247.953125 C 48.832031 247.109375 45.390625 245.675781 43.203125 244.765625 C 41.011719 243.851562 37.707031 242.480469 35.855469 241.714844 L 32.492188 240.320312 L 31.691406 238.738281 C 27.347656 230.125 29.238281 221.914062 37.507812 213.511719 L 38.488281 212.515625 L 41.671875 212.007812 C 46.253906 211.273438 53.265625 210.1875 53.511719 210.175781 C 53.628906 210.167969 54.234375 210.433594 54.855469 210.765625 M 274.3125 211.707031 C 255.023438 212.144531 242.753906 212.910156 235.019531 214.148438 C 232.363281 214.578125 232.234375 214.621094 232.144531 215.171875 C 231.933594 216.414062 232.355469 216.550781 235.019531 216.117188 C 251.613281 213.414062 294.816406 212.679688 303.355469 214.957031 C 304.914062 215.371094 305.417969 215.121094 305.214844 214.027344 C 305.050781 213.15625 300.476562 212.351562 292.980469 211.871094 C 290.996094 211.742188 277.789062 211.628906 274.3125 211.707031 M 48.832031 216.496094 C 48.554688 216.601562 48.46875 216.789062 48.46875 217.300781 C 48.464844 218.042969 48.164062 217.871094 55.808594 221.484375 C 59.726562 223.335938 60.421875 223.664062 62.601562 224.664062 C 66.152344 226.300781 67.414062 226.875 71.234375 228.589844 C 93.097656 238.417969 93.167969 238.445312 93.460938 237.285156 C 93.640625 236.558594 93.429688 236.359375 91.605469 235.558594 C 88.394531 234.136719 68.265625 225.089844 65.542969 223.839844 C 63.167969 222.753906 56.714844 219.726562 53.605469 218.242188 C 49.675781 216.371094 49.414062 216.273438 48.832031 216.496094 M 285.328125 220.035156 C 273.96875 220.445312 268.914062 220.910156 256.257812 222.710938 C 248.851562 223.765625 248.546875 223.828125 248.441406 224.359375 C 248.144531 225.851562 248.066406 225.847656 257.113281 224.5625 C 268.546875 222.933594 273.660156 222.433594 282.941406 222.035156 C 287.675781 221.832031 298.152344 221.746094 299.9375 221.894531 C 301.71875 222.042969 302.039062 221.976562 302.15625 221.445312 C 302.285156 220.859375 302.121094 220.472656 301.6875 220.328125 C 300.808594 220.039062 290.4375 219.851562 285.328125 220.035156 M 180.054688 223.585938 C 179.886719 223.613281 178.539062 223.800781 177.058594 224.003906 C 167.992188 225.238281 155.582031 227.769531 146.046875 230.316406 C 138.429688 232.351562 125.171875 236.589844 123.160156 237.632812 C 122.527344 237.957031 122.484375 238.949219 123.09375 239.179688 C 123.667969 239.398438 124.117188 239.292969 127.382812 238.148438 C 138.144531 234.386719 148.289062 231.511719 158.5625 229.316406 C 163.730469 228.210938 174.464844 226.230469 178.769531 225.582031 C 181.375 225.191406 181.636719 225.054688 181.46875 224.160156 C 181.363281 223.589844 180.988281 223.441406 180.054688 223.585938 M 239.777344 224.660156 C 239.605469 224.835938 236.871094 225.238281 209.371094 229.132812 C 178.984375 233.4375 159.824219 237.140625 135.867188 243.347656 C 129.515625 244.988281 129.050781 245.191406 129.304688 246.214844 C 129.492188 246.960938 130.160156 246.929688 133.40625 246.03125 C 156.003906 239.785156 180.625 235.0625 216.71875 230.050781 C 233.371094 227.742188 240.3125 226.621094 240.972656 226.140625 C 241.203125 225.96875 241.304688 224.980469 241.109375 224.78125 C 240.992188 224.664062 239.875 224.5625 239.777344 224.660156 M 294.632812 228.046875 C 287.929688 228.351562 270.609375 229.824219 260.171875 230.976562 C 245.246094 232.628906 223.179688 236.078125 204.171875 239.734375 C 202.589844 240.039062 200.605469 240.421875 199.765625 240.582031 C 198.921875 240.742188 197.242188 241.070312 196.03125 241.304688 C 193.355469 241.832031 187.722656 242.867188 180.421875 244.183594 C 173.210938 245.484375 173.417969 245.410156 173.636719 246.574219 C 173.773438 247.3125 174.136719 247.304688 178.464844 246.511719 C 180.316406 246.175781 183.402344 245.621094 185.320312 245.285156 C 189.109375 244.625 191.234375 244.226562 195.480469 243.398438 C 199.074219 242.695312 203.480469 241.851562 206.007812 241.378906 C 207.117188 241.167969 208.578125 240.894531 209.25 240.765625 C 223.777344 237.988281 245.558594 234.609375 258.582031 233.117188 C 272.320312 231.542969 293.46875 229.8125 300.628906 229.683594 C 302.078125 229.65625 303.351562 229.632812 303.464844 229.628906 C 303.960938 229.621094 303.878906 228.28125 303.371094 228.050781 C 303.023438 227.890625 298.101562 227.890625 294.632812 228.046875 M 42.378906 229.09375 C 42.160156 229.179688 42.0625 229.882812 42.214844 230.277344 C 42.628906 231.367188 67.140625 241.988281 77 245.355469 C 79.632812 246.253906 80.074219 246.296875 80.304688 245.6875 C 80.640625 244.800781 80.492188 244.667969 78.175781 243.828125 C 70.347656 241 54.171875 234.136719 45.734375 230.066406 C 43.59375 229.035156 42.972656 228.851562 42.378906 229.09375 M 304.914062 234.894531 C 299.773438 235.855469 280.1875 238.890625 272.230469 239.960938 C 264.339844 241.019531 261.042969 241.324219 256.074219 241.445312 C 252.191406 241.542969 251.949219 241.628906 252.214844 242.839844 C 252.484375 244.054688 262.542969 243.375 278.414062 241.058594 C 290.898438 239.238281 301.398438 237.507812 306.953125 236.355469 C 307.625 236.214844 307.730469 236.089844 307.726562 235.460938 C 307.722656 234.621094 307.066406 234.488281 304.914062 234.894531 M 40.734375 235.945312 C 40.238281 236.089844 40.332031 237.339844 40.855469 237.578125 C 42.414062 238.289062 52.574219 242.597656 57.035156 244.4375 C 70.304688 249.910156 77.160156 252.945312 89.960938 259.003906 C 105.582031 266.398438 108.074219 267.292969 108.074219 265.492188 C 108.074219 264.894531 108.007812 264.832031 107.039062 264.511719 C 105.082031 263.867188 100.742188 261.917969 91.125 257.351562 C 87.757812 255.757812 84.894531 254.40625 84.761719 254.351562 C 84.625 254.300781 83.359375 253.722656 81.945312 253.066406 C 75.042969 249.878906 67.4375 246.578125 58.808594 243.027344 C 55.914062 241.835938 50.957031 239.757812 47.792969 238.40625 C 42.160156 236 41.417969 235.742188 40.734375 235.945312 M 81.3125 237.332031 C 80.867188 237.519531 80.789062 238.460938 81.1875 238.785156 C 81.570312 239.097656 94.867188 244.273438 99.34375 245.851562 C 105.730469 248.105469 106.367188 248.234375 106.542969 247.308594 C 106.675781 246.582031 106.53125 246.316406 105.894531 246.140625 C 104.195312 245.671875 97.113281 243 84.761719 238.167969 C 82.546875 237.300781 81.804688 237.121094 81.3125 237.332031 M 233.316406 242.425781 C 232.242188 242.890625 223.714844 244.621094 199.214844 249.34375 C 166.710938 255.609375 152.003906 259.460938 135.683594 265.984375 C 132.09375 267.417969 130.683594 267.914062 128.890625 268.378906 C 127.015625 268.863281 126.957031 268.890625 126.867188 269.292969 C 126.425781 271.304688 128.492188 270.964844 136.902344 267.632812 C 153.675781 260.988281 167.332031 257.464844 202.578125 250.683594 C 204.699219 250.273438 206.683594 249.886719 206.988281 249.824219 C 207.289062 249.761719 208.996094 249.429688 210.78125 249.089844 C 212.566406 248.75 214.273438 248.417969 214.574219 248.355469 C 214.878906 248.289062 217.273438 247.820312 219.902344 247.308594 C 230.859375 245.171875 234.675781 244.191406 234.832031 243.46875 C 235.066406 242.398438 234.414062 241.949219 233.316406 242.425781 M 83.085938 246.714844 C 82.519531 246.886719 82.695312 248.105469 83.332031 248.410156 C 84.648438 249.039062 95.449219 253.820312 97.917969 254.871094 C 99.5 255.539062 101.5625 256.414062 102.496094 256.8125 C 103.433594 257.210938 104.3125 257.535156 104.457031 257.535156 C 105.214844 257.527344 105.46875 257.191406 105.320312 256.382812 C 105.246094 255.988281 105.183594 255.953125 102.101562 254.59375 C 100.375 253.832031 95.683594 251.75 91.675781 249.96875 C 84.480469 246.769531 83.792969 246.507812 83.085938 246.714844 M 156.1875 249.832031 C 152.792969 250.046875 147.507812 251.117188 142.085938 252.691406 C 134.667969 254.847656 122.558594 259.839844 122.339844 260.832031 C 122.21875 261.390625 122.367188 261.90625 122.683594 261.988281 C 123.277344 262.148438 123.671875 262.023438 125.753906 261.019531 C 128.660156 259.625 133.652344 257.589844 137.824219 256.105469 C 143.582031 254.054688 152.527344 251.917969 156.941406 251.539062 C 158.628906 251.394531 158.710938 251.367188 158.8125 250.960938 C 158.996094 250.234375 158.628906 249.679688 158 249.71875 C 157.84375 249.730469 157.027344 249.78125 156.1875 249.832031 M 321.960938 250.917969 C 325.707031 252.851562 326.277344 253.089844 335.824219 256.695312 C 341.042969 258.667969 343.675781 260.417969 344.816406 262.671875 C 345.019531 263.070312 347.195312 269.042969 347.496094 270.019531 C 348.617188 273.664062 349.535156 286.425781 348.824219 288.457031 C 348.234375 290.152344 346.058594 291.53125 340.597656 293.679688 C 329.078125 298.210938 317.265625 301.097656 295.671875 304.664062 C 272.308594 308.515625 270.121094 308.898438 261.703125 310.554688 C 250.96875 312.671875 240.101562 315.207031 225.347656 319.035156 C 224.167969 319.339844 222.269531 319.832031 221.125 320.128906 C 219.980469 320.425781 217.199219 321.148438 214.941406 321.734375 C 204.867188 324.355469 190.363281 327.921875 189.777344 327.921875 C 189.738281 327.921875 189.871094 327.710938 190.074219 327.457031 C 194.398438 321.992188 196.886719 310.589844 195.355469 303.222656 C 192.941406 291.613281 180.46875 284.605469 152.390625 279.09375 C 151.011719 278.824219 149.632812 278.550781 149.332031 278.492188 C 148.578125 278.34375 147.609375 278.523438 162.980469 275.953125 C 176.421875 273.707031 191.566406 271.171875 213.414062 267.511719 C 219.605469 266.472656 230.292969 264.683594 237.160156 263.535156 C 244.027344 262.382812 254.21875 260.675781 259.804688 259.738281 C 265.394531 258.800781 277.734375 256.734375 287.226562 255.144531 C 296.71875 253.554688 307.847656 251.6875 311.953125 250.988281 C 316.058594 250.296875 319.460938 249.71875 319.515625 249.714844 C 319.566406 249.707031 320.667969 250.246094 321.960938 250.917969 M 330.222656 261.09375 C 327.964844 261.292969 314.949219 263.535156 304.242188 265.5625 C 302.289062 265.933594 299.949219 266.378906 299.039062 266.550781 C 280.617188 270.039062 249.75 276.804688 225.347656 282.707031 C 207.957031 286.914062 191.988281 290.933594 190.65625 291.441406 C 190.304688 291.570312 190.152344 292.113281 190.328125 292.578125 C 190.605469 293.3125 189.765625 293.480469 207.414062 289.113281 C 212.261719 287.914062 217.054688 286.730469 218.066406 286.488281 C 219.074219 286.242188 221.03125 285.765625 222.410156 285.429688 C 225.910156 284.574219 230.660156 283.4375 233.089844 282.867188 C 234.21875 282.601562 236.089844 282.160156 237.253906 281.890625 C 265.5625 275.25 292.050781 269.683594 314.09375 265.742188 C 328.152344 263.230469 330.171875 262.921875 332.59375 262.921875 C 334.300781 262.921875 334.839844 262.753906 334.964844 262.191406 C 335.222656 261.011719 334.082031 260.75 330.222656 261.09375 M 67.070312 265.371094 C 68.855469 265.4375 71.183594 265.550781 72.246094 265.617188 L 74.175781 265.742188 L 89.75 271.96875 C 98.316406 275.394531 107.96875 279.253906 111.199219 280.550781 C 114.429688 281.84375 117.1875 282.933594 117.320312 282.96875 C 117.453125 283.007812 117.597656 283.085938 117.640625 283.148438 C 117.851562 283.464844 118.992188 283.332031 126.042969 282.148438 L 133.417969 280.910156 L 136.082031 281.539062 C 144.070312 283.410156 147.441406 284.390625 159.308594 288.28125 C 173.355469 292.886719 177.230469 294.496094 181.222656 297.386719 C 188.582031 302.710938 190.976562 312.910156 186.441406 319.628906 C 179.890625 329.339844 174.65625 330.640625 156.308594 327.113281 C 142.628906 324.484375 133.089844 321.738281 107.46875 313.042969 C 86.023438 305.765625 61.53125 299.304688 45.007812 296.570312 C 43.90625 296.390625 43.933594 296.472656 44.488281 295.058594 C 47.847656 286.503906 49.058594 275.171875 47.484375 267.054688 C 47.351562 266.371094 47.257812 265.800781 47.273438 265.785156 C 47.660156 265.398438 60.671875 265.128906 67.070312 265.371094 M 63.011719 272.542969 C 62.707031 272.636719 62.480469 273.285156 62.617188 273.671875 C 62.820312 274.25 62.878906 274.265625 68.480469 275.042969 C 78.324219 276.40625 87.519531 278.574219 97.632812 281.90625 C 101.765625 283.269531 102.113281 283.324219 102.265625 282.625 C 102.449219 281.785156 102.304688 281.617188 100.945312 281.113281 C 90.554688 277.234375 80.515625 274.765625 68.050781 273.015625 C 64.996094 272.585938 63.375 272.433594 63.011719 272.542969 M 55.304688 282.210938 C 54.851562 282.355469 54.703125 283.183594 55.0625 283.621094 C 55.289062 283.90625 55.320312 283.910156 59.5 284.054688 C 74.101562 284.558594 84.875 286.582031 97.652344 291.21875 C 100.378906 292.210938 100.769531 292.246094 100.910156 291.507812 C 101.089844 290.542969 100.847656 290.386719 97.144531 289.035156 C 86.699219 285.230469 77.925781 283.371094 66.03125 282.4375 C 63.679688 282.253906 55.714844 282.085938 55.304688 282.210938 M 134.011719 289.445312 C 133.753906 289.511719 133.628906 289.988281 133.730469 290.519531 C 133.820312 291.003906 133.972656 291.058594 137.027344 291.757812 C 140.402344 292.527344 148.703125 294.671875 152.152344 295.667969 C 157.464844 297.199219 165.222656 299.953125 169.253906 301.738281 C 170.9375 302.484375 171.445312 302.488281 171.652344 301.753906 C 171.902344 300.882812 171.257812 300.457031 167.1875 298.808594 C 160.210938 295.980469 154.449219 294.144531 144.863281 291.6875 C 143.246094 291.273438 141.402344 290.796875 140.761719 290.632812 C 136.996094 289.65625 134.722656 289.257812 134.011719 289.445312 M 79.726562 292.628906 C 79.511719 292.785156 79.410156 293.25 79.496094 293.652344 C 79.617188 294.195312 78.859375 293.941406 89.535156 297.019531 C 99.339844 299.847656 100.769531 300.253906 103.976562 301.132812 C 134.988281 309.613281 157.257812 316.59375 170.078125 321.855469 C 171.980469 322.636719 172.359375 322.734375 172.917969 322.582031 C 173.226562 322.5 173.378906 322.003906 173.253906 321.496094 C 173.152344 321.101562 172.949219 321.003906 168.488281 319.175781 C 157.222656 314.554688 134.5625 307.464844 106.914062 299.90625 C 101.652344 298.464844 99.675781 297.914062 98.285156 297.503906 C 97.511719 297.273438 95.609375 296.722656 94.0625 296.273438 C 92.515625 295.828125 89.042969 294.828125 86.351562 294.054688 C 81.652344 292.699219 80.09375 292.367188 79.726562 292.628906 M 120.546875 296.210938 C 120.058594 296.515625 120.136719 297.5625 120.660156 297.804688 C 120.84375 297.886719 122.628906 298.363281 124.628906 298.859375 C 137.234375 301.996094 147.203125 305.230469 155.304688 308.8125 C 156.546875 309.363281 156.640625 309.378906 157.089844 309.175781 C 157.90625 308.804688 157.628906 307.828125 156.570312 307.339844 C 151.796875 305.152344 144.011719 302.210938 139.476562 300.886719 C 131.730469 298.621094 131.625 298.589844 126.011719 297.199219 C 121.957031 296.191406 120.890625 296 120.546875 296.210938 " fill-opacity="1" fill-rule="evenodd"/></svg>