<svg xmlns="http://www.w3.org/2000/svg" xmlns:xlink="http://www.w3.org/1999/xlink" width="500" zoomAndPan="magnify" viewBox="0 0 375 374.999991" height="500" preserveAspectRatio="xMidYMid meet" version="1.0"><defs><clipPath id="1b2afd22f8"><path d="M 4.605469 229 L 370.605469 229 L 370.605469 255.109375 L 4.605469 255.109375 Z M 4.605469 229 " clip-rule="nonzero"/></clipPath><clipPath id="9e2b6f68cf"><path d="M 43 163.609375 L 184 163.609375 L 184 229 L 43 229 Z M 43 163.609375 " clip-rule="nonzero"/></clipPath><clipPath id="1479d0a7b1"><path d="M 190 163.609375 L 331 163.609375 L 331 229 L 190 229 Z M 190 163.609375 " clip-rule="nonzero"/></clipPath><clipPath id="f0033e6fa8"><path d="M 157 172 L 173 172 L 173 181 L 157 181 Z M 157 172 " clip-rule="nonzero"/></clipPath><clipPath id="88e40bd9f8"><path d="M 154.878906 169.019531 L 168.429688 164.613281 L 174.464844 183.15625 L 160.914062 187.5625 Z M 154.878906 169.019531 " clip-rule="nonzero"/></clipPath><clipPath id="748e81e730"><path d="M 154.878906 169.019531 L 168.429688 164.613281 L 174.464844 183.15625 L 160.914062 187.5625 Z M 154.878906 169.019531 " clip-rule="nonzero"/></clipPath><clipPath id="cc74144d42"><path d="M 158 166 L 170 166 L 170 177 L 158 177 Z M 158 166 " clip-rule="nonzero"/></clipPath><clipPath id="2dc817edca"><path d="M 154.878906 169.019531 L 168.429688 164.613281 L 174.464844 183.15625 L 160.914062 187.5625 Z M 154.878906 169.019531 " clip-rule="nonzero"/></clipPath><clipPath id="150ccb5ba0"><path d="M 154.878906 169.019531 L 168.429688 164.613281 L 174.464844 183.15625 L 160.914062 187.5625 Z M 154.878906 169.019531 " clip-rule="nonzero"/></clipPath><clipPath id="6673825c3f"><path d="M 165 177 L 168 177 L 168 183 L 165 183 Z M 165 177 " clip-rule="nonzero"/></clipPath><clipPath id="ce57a1e0d0"><path d="M 154.878906 169.019531 L 168.429688 164.613281 L 174.464844 183.15625 L 160.914062 187.5625 Z M 154.878906 169.019531 " clip-rule="nonzero"/></clipPath><clipPath id="5d19266baf"><path d="M 154.878906 169.019531 L 168.429688 164.613281 L 174.464844 183.15625 L 160.914062 187.5625 Z M 154.878906 169.019531 " clip-rule="nonzero"/></clipPath><clipPath id="e210bd26da"><path d="M 165 181 L 170 181 L 170 186 L 165 186 Z M 165 181 " clip-rule="nonzero"/></clipPath><clipPath id="0785606128"><path d="M 154.878906 169.019531 L 168.429688 164.613281 L 174.464844 183.15625 L 160.914062 187.5625 Z M 154.878906 169.019531 " clip-rule="nonzero"/></clipPath><clipPath id="db10a88d0d"><path d="M 154.878906 169.019531 L 168.429688 164.613281 L 174.464844 183.15625 L 160.914062 187.5625 Z M 154.878906 169.019531 " clip-rule="nonzero"/></clipPath><clipPath id="1697caf75f"><path d="M 161 178 L 163 178 L 163 184 L 161 184 Z M 161 178 " clip-rule="nonzero"/></clipPath><clipPath id="144f8daf97"><path d="M 154.878906 169.019531 L 168.429688 164.613281 L 174.464844 183.15625 L 160.914062 187.5625 Z M 154.878906 169.019531 " clip-rule="nonzero"/></clipPath><clipPath id="6eacff17b1"><path d="M 154.878906 169.019531 L 168.429688 164.613281 L 174.464844 183.15625 L 160.914062 187.5625 Z M 154.878906 169.019531 " clip-rule="nonzero"/></clipPath><clipPath id="11cdb383a4"><path d="M 160 183 L 164 183 L 164 187 L 160 187 Z M 160 183 " clip-rule="nonzero"/></clipPath><clipPath id="2b13738683"><path d="M 154.878906 169.019531 L 168.429688 164.613281 L 174.464844 183.15625 L 160.914062 187.5625 Z M 154.878906 169.019531 " clip-rule="nonzero"/></clipPath><clipPath id="e3b3732c3a"><path d="M 154.878906 169.019531 L 168.429688 164.613281 L 174.464844 183.15625 L 160.914062 187.5625 Z M 154.878906 169.019531 " clip-rule="nonzero"/></clipPath><clipPath id="41539cd816"><path d="M 168 176 L 172 176 L 172 181 L 168 181 Z M 168 176 " clip-rule="nonzero"/></clipPath><clipPath id="59f6feb0f1"><path d="M 154.878906 169.019531 L 168.429688 164.613281 L 174.464844 183.15625 L 160.914062 187.5625 Z M 154.878906 169.019531 " clip-rule="nonzero"/></clipPath><clipPath id="b85d75e641"><path d="M 154.878906 169.019531 L 168.429688 164.613281 L 174.464844 183.15625 L 160.914062 187.5625 Z M 154.878906 169.019531 " clip-rule="nonzero"/></clipPath><clipPath id="cc4eb8d407"><path d="M 170 180 L 175 180 L 175 184 L 170 184 Z M 170 180 " clip-rule="nonzero"/></clipPath><clipPath id="0a7ff6582d"><path d="M 154.878906 169.019531 L 168.429688 164.613281 L 174.464844 183.15625 L 160.914062 187.5625 Z M 154.878906 169.019531 " clip-rule="nonzero"/></clipPath><clipPath id="e490ad65e6"><path d="M 154.878906 169.019531 L 168.429688 164.613281 L 174.464844 183.15625 L 160.914062 187.5625 Z M 154.878906 169.019531 " clip-rule="nonzero"/></clipPath><clipPath id="03dcdf32e1"><path d="M 160 168 L 166 168 L 166 174 L 160 174 Z M 160 168 " clip-rule="nonzero"/></clipPath><clipPath id="8617772ea1"><path d="M 154.878906 169.019531 L 168.429688 164.613281 L 174.464844 183.15625 L 160.914062 187.5625 Z M 154.878906 169.019531 " clip-rule="nonzero"/></clipPath><clipPath id="1eec3c2a8e"><path d="M 154.878906 169.019531 L 168.429688 164.613281 L 174.464844 183.15625 L 160.914062 187.5625 Z M 154.878906 169.019531 " clip-rule="nonzero"/></clipPath><clipPath id="f73c6e6c95"><path d="M 200 167 L 218 167 L 218 187 L 200 187 Z M 200 167 " clip-rule="nonzero"/></clipPath><clipPath id="4fc66f675a"><path d="M 202.507812 166.632812 L 219.59375 169.003906 L 217.019531 187.578125 L 199.933594 185.207031 Z M 202.507812 166.632812 " clip-rule="nonzero"/></clipPath><clipPath id="7583da6aba"><path d="M 202.507812 166.632812 L 219.59375 169.003906 L 217.019531 187.578125 L 199.933594 185.207031 Z M 202.507812 166.632812 " clip-rule="nonzero"/></clipPath><clipPath id="4d836fa1a6"><path d="M 211 169 L 214 169 L 214 172 L 211 172 Z M 211 169 " clip-rule="nonzero"/></clipPath><clipPath id="5a463e9a26"><path d="M 202.507812 166.632812 L 219.59375 169.003906 L 217.019531 187.578125 L 199.933594 185.207031 Z M 202.507812 166.632812 " clip-rule="nonzero"/></clipPath><clipPath id="7bc154be34"><path d="M 202.507812 166.632812 L 219.59375 169.003906 L 217.019531 187.578125 L 199.933594 185.207031 Z M 202.507812 166.632812 " clip-rule="nonzero"/></clipPath><clipPath id="da1baf9c9e"><path d="M 208 169 L 210 169 L 210 171 L 208 171 Z M 208 169 " clip-rule="nonzero"/></clipPath><clipPath id="b8f8eb8e63"><path d="M 202.507812 166.632812 L 219.59375 169.003906 L 217.019531 187.578125 L 199.933594 185.207031 Z M 202.507812 166.632812 " clip-rule="nonzero"/></clipPath><clipPath id="a970387eb0"><path d="M 202.507812 166.632812 L 219.59375 169.003906 L 217.019531 187.578125 L 199.933594 185.207031 Z M 202.507812 166.632812 " clip-rule="nonzero"/></clipPath><clipPath id="60791e409b"><path d="M 209 172 L 212 172 L 212 174 L 209 174 Z M 209 172 " clip-rule="nonzero"/></clipPath><clipPath id="5cfc2ae354"><path d="M 202.507812 166.632812 L 219.59375 169.003906 L 217.019531 187.578125 L 199.933594 185.207031 Z M 202.507812 166.632812 " clip-rule="nonzero"/></clipPath><clipPath id="ecb6d9205a"><path d="M 202.507812 166.632812 L 219.59375 169.003906 L 217.019531 187.578125 L 199.933594 185.207031 Z M 202.507812 166.632812 " clip-rule="nonzero"/></clipPath><clipPath id="2b5f5f985a"><path d="M 206 177 L 213 177 L 213 180 L 206 180 Z M 206 177 " clip-rule="nonzero"/></clipPath><clipPath id="0275afe0d0"><path d="M 202.507812 166.632812 L 219.59375 169.003906 L 217.019531 187.578125 L 199.933594 185.207031 Z M 202.507812 166.632812 " clip-rule="nonzero"/></clipPath><clipPath id="f514ab30ad"><path d="M 202.507812 166.632812 L 219.59375 169.003906 L 217.019531 187.578125 L 199.933594 185.207031 Z M 202.507812 166.632812 " clip-rule="nonzero"/></clipPath><clipPath id="29d242faa8"><path d="M 207 178 L 212 178 L 212 181 L 207 181 Z M 207 178 " clip-rule="nonzero"/></clipPath><clipPath id="0686abe030"><path d="M 202.507812 166.632812 L 219.59375 169.003906 L 217.019531 187.578125 L 199.933594 185.207031 Z M 202.507812 166.632812 " clip-rule="nonzero"/></clipPath><clipPath id="d25e44b3cd"><path d="M 202.507812 166.632812 L 219.59375 169.003906 L 217.019531 187.578125 L 199.933594 185.207031 Z M 202.507812 166.632812 " clip-rule="nonzero"/></clipPath><clipPath id="af0cf381e0"><path d="M 207 180 L 211 180 L 211 182 L 207 182 Z M 207 180 " clip-rule="nonzero"/></clipPath><clipPath id="7a6587db12"><path d="M 202.507812 166.632812 L 219.59375 169.003906 L 217.019531 187.578125 L 199.933594 185.207031 Z M 202.507812 166.632812 " clip-rule="nonzero"/></clipPath><clipPath id="757e74f86a"><path d="M 202.507812 166.632812 L 219.59375 169.003906 L 217.019531 187.578125 L 199.933594 185.207031 Z M 202.507812 166.632812 " clip-rule="nonzero"/></clipPath><clipPath id="862edbae99"><path d="M 208 181 L 210 181 L 210 183 L 208 183 Z M 208 181 " clip-rule="nonzero"/></clipPath><clipPath id="0dbae100e2"><path d="M 202.507812 166.632812 L 219.59375 169.003906 L 217.019531 187.578125 L 199.933594 185.207031 Z M 202.507812 166.632812 " clip-rule="nonzero"/></clipPath><clipPath id="d0f945da65"><path d="M 202.507812 166.632812 L 219.59375 169.003906 L 217.019531 187.578125 L 199.933594 185.207031 Z M 202.507812 166.632812 " clip-rule="nonzero"/></clipPath><clipPath id="73718c4809"><path d="M 174.589844 144.121094 L 196.339844 144.121094 L 196.339844 171.121094 L 174.589844 171.121094 Z M 174.589844 144.121094 " clip-rule="nonzero"/></clipPath></defs><g clip-path="url(#1b2afd22f8)"><path fill="#f97316" d="M 364.664062 255.050781 L 201.785156 255.050781 C 200.355469 255.050781 198.925781 254.476562 197.78125 253.335938 L 187.496094 243.332031 L 177.207031 253.335938 C 176.066406 254.476562 174.636719 255.050781 173.207031 255.050781 L 10.328125 255.050781 C 7.183594 255.050781 4.613281 252.476562 4.613281 249.332031 C 4.613281 246.191406 7.183594 243.617188 10.328125 243.617188 L 170.921875 243.617188 L 183.496094 231.332031 C 185.78125 229.046875 189.210938 229.046875 191.496094 231.332031 L 204.070312 243.617188 L 364.664062 243.617188 C 367.804688 243.617188 370.378906 246.191406 370.378906 249.332031 C 370.378906 252.476562 367.804688 255.050781 364.664062 255.050781 Z M 364.664062 255.050781 " fill-opacity="1" fill-rule="nonzero"/></g><g clip-path="url(#9e2b6f68cf)"><path fill="#f97316" d="M 43.191406 174.753906 L 74.621094 163.609375 C 74.621094 163.609375 153.203125 165.035156 183.210938 211.328125 L 183.210938 228.1875 C 183.210938 228.1875 137.488281 174.753906 43.191406 174.753906 Z M 43.191406 174.753906 " fill-opacity="1" fill-rule="nonzero"/></g><path fill="#f97316" d="M 36.046875 184.753906 L 53.191406 179.039062 C 53.191406 179.039062 133.203125 179.039062 178.921875 226.757812 C 178.921875 227.046875 118.914062 187.609375 36.046875 184.753906 Z M 36.046875 184.753906 " fill-opacity="1" fill-rule="nonzero"/><path fill="#f97316" d="M 27.472656 209.898438 L 36.046875 193.039062 C 36.046875 193.039062 127.488281 195.898438 176.066406 226.757812 C 176.066406 227.046875 61.761719 201.613281 27.472656 209.898438 Z M 27.472656 209.898438 " fill-opacity="1" fill-rule="nonzero"/><path fill="#f97316" d="M 21.757812 224.1875 C 21.757812 224.1875 73.195312 207.328125 176.066406 232.761719 C 176.066406 232.761719 70.335938 221.617188 18.902344 232.761719 Z M 21.757812 224.1875 " fill-opacity="1" fill-rule="nonzero"/><g clip-path="url(#1479d0a7b1)"><path fill="#f97316" d="M 330.371094 174.753906 L 298.941406 163.609375 C 298.941406 163.609375 220.355469 165.035156 190.351562 211.328125 L 190.351562 228.1875 C 190.351562 228.1875 236.074219 174.753906 330.371094 174.753906 Z M 330.371094 174.753906 " fill-opacity="1" fill-rule="nonzero"/></g><path fill="#f97316" d="M 337.515625 184.753906 L 320.371094 179.039062 C 320.371094 179.039062 240.359375 179.039062 194.640625 226.757812 C 194.640625 227.046875 254.648438 187.609375 337.515625 184.753906 Z M 337.515625 184.753906 " fill-opacity="1" fill-rule="nonzero"/><path fill="#f97316" d="M 346.089844 209.898438 L 337.515625 193.039062 C 337.515625 193.039062 246.074219 195.898438 197.496094 226.757812 C 197.496094 227.046875 311.796875 201.613281 346.089844 209.898438 Z M 346.089844 209.898438 " fill-opacity="1" fill-rule="nonzero"/><path fill="#f97316" d="M 351.804688 224.1875 C 351.804688 224.1875 300.367188 207.328125 197.496094 232.761719 C 197.496094 232.761719 303.226562 221.617188 354.660156 232.761719 Z M 351.804688 224.1875 " fill-opacity="1" fill-rule="nonzero"/><g clip-path="url(#f0033e6fa8)"><g clip-path="url(#88e40bd9f8)"><g clip-path="url(#748e81e730)"><path fill="#f97316" d="M 172.023438 176.195312 L 158.933594 180.453125 C 158.769531 180.507812 158.589844 180.417969 158.535156 180.25 L 157.613281 177.425781 C 157.558594 177.257812 157.648438 177.078125 157.816406 177.023438 L 170.910156 172.765625 C 171.074219 172.710938 171.253906 172.800781 171.308594 172.96875 L 172.226562 175.792969 C 172.28125 175.960938 172.191406 176.140625 172.023438 176.195312 Z M 159.035156 179.757812 L 171.527344 175.691406 L 170.804688 173.464844 L 158.3125 177.53125 Z M 159.035156 179.757812 " fill-opacity="1" fill-rule="nonzero"/></g></g></g><g clip-path="url(#cc74144d42)"><g clip-path="url(#2dc817edca)"><g clip-path="url(#150ccb5ba0)"><path fill="#f97316" d="M 168.824219 174.109375 C 168.660156 174.164062 168.480469 174.074219 168.425781 173.90625 L 167.164062 170.035156 C 166.765625 168.816406 166.007812 167.933594 164.972656 167.488281 C 164.050781 167.085938 162.964844 167.054688 161.921875 167.394531 C 160.011719 168.015625 158.359375 169.914062 159.238281 172.609375 L 160.496094 176.480469 C 160.550781 176.644531 160.460938 176.828125 160.292969 176.882812 C 160.125 176.9375 159.949219 176.847656 159.894531 176.679688 L 158.632812 172.804688 C 158.179688 171.410156 158.296875 170.074219 158.960938 168.941406 C 159.554688 167.945312 160.535156 167.179688 161.726562 166.792969 C 162.917969 166.40625 164.164062 166.445312 165.226562 166.90625 C 166.4375 167.425781 167.3125 168.441406 167.765625 169.839844 L 169.027344 173.710938 C 169.082031 173.878906 168.992188 174.054688 168.824219 174.109375 Z M 168.824219 174.109375 " fill-opacity="1" fill-rule="nonzero"/></g></g></g><g clip-path="url(#6673825c3f)"><g clip-path="url(#ce57a1e0d0)"><g clip-path="url(#5d19266baf)"><path fill="#f97316" d="M 166.804688 182.390625 C 166.636719 182.445312 166.457031 182.355469 166.402344 182.1875 L 165.078125 178.121094 C 165.027344 177.957031 165.113281 177.773438 165.28125 177.71875 C 165.445312 177.667969 165.628906 177.753906 165.683594 177.925781 L 167.007812 181.992188 C 167.058594 182.15625 166.96875 182.339844 166.804688 182.390625 Z M 166.804688 182.390625 " fill-opacity="1" fill-rule="nonzero"/></g></g></g><g clip-path="url(#e210bd26da)"><g clip-path="url(#0785606128)"><g clip-path="url(#db10a88d0d)"><path fill="#f97316" d="M 167.738281 185.269531 C 166.777344 185.582031 165.746094 185.054688 165.433594 184.09375 C 165.121094 183.136719 165.644531 182.101562 166.605469 181.789062 C 167.566406 181.476562 168.601562 182.003906 168.914062 182.960938 C 169.226562 183.921875 168.699219 184.957031 167.738281 185.269531 Z M 166.804688 182.390625 C 166.175781 182.597656 165.832031 183.273438 166.035156 183.898438 C 166.238281 184.527344 166.914062 184.871094 167.542969 184.664062 C 168.167969 184.460938 168.511719 183.785156 168.308594 183.160156 C 168.105469 182.53125 167.429688 182.1875 166.804688 182.390625 Z M 166.804688 182.390625 " fill-opacity="1" fill-rule="nonzero"/></g></g></g><g clip-path="url(#1697caf75f)"><g clip-path="url(#144f8daf97)"><g clip-path="url(#6eacff17b1)"><path fill="#f97316" d="M 162.21875 183.960938 C 162.1875 183.972656 162.15625 183.976562 162.121094 183.976562 C 161.949219 183.976562 161.808594 183.835938 161.804688 183.660156 L 161.800781 179.085938 C 161.800781 178.914062 161.941406 178.773438 162.117188 178.773438 C 162.292969 178.773438 162.433594 178.910156 162.433594 179.089844 L 162.4375 183.660156 C 162.4375 183.800781 162.347656 183.921875 162.21875 183.960938 Z M 162.21875 183.960938 " fill-opacity="1" fill-rule="nonzero"/></g></g></g><g clip-path="url(#11cdb383a4)"><g clip-path="url(#2b13738683)"><g clip-path="url(#e3b3732c3a)"><path fill="#f97316" d="M 162.691406 186.910156 C 161.730469 187.222656 160.695312 186.699219 160.382812 185.738281 C 160.070312 184.777344 160.597656 183.742188 161.558594 183.429688 C 162.519531 183.117188 163.550781 183.644531 163.863281 184.605469 C 164.175781 185.566406 163.648438 186.601562 162.691406 186.910156 Z M 161.753906 184.035156 C 161.128906 184.238281 160.785156 184.914062 160.988281 185.542969 C 161.191406 186.167969 161.867188 186.511719 162.496094 186.308594 C 163.121094 186.105469 163.464844 185.429688 163.261719 184.800781 C 163.058594 184.175781 162.382812 183.832031 161.753906 184.035156 Z M 161.753906 184.035156 " fill-opacity="1" fill-rule="nonzero"/></g></g></g><g clip-path="url(#41539cd816)"><g clip-path="url(#59f6feb0f1)"><g clip-path="url(#b85d75e641)"><path fill="#f97316" d="M 171.429688 180.964844 C 171.304688 181.003906 171.160156 180.960938 171.078125 180.851562 L 168.390625 177.148438 C 168.289062 177.007812 168.316406 176.804688 168.457031 176.703125 C 168.597656 176.601562 168.800781 176.632812 168.902344 176.773438 L 171.589844 180.476562 C 171.691406 180.617188 171.660156 180.816406 171.519531 180.917969 C 171.492188 180.9375 171.460938 180.953125 171.429688 180.964844 Z M 171.429688 180.964844 " fill-opacity="1" fill-rule="nonzero"/></g></g></g><g clip-path="url(#cc4eb8d407)"><g clip-path="url(#0a7ff6582d)"><g clip-path="url(#e490ad65e6)"><path fill="#f97316" d="M 172.785156 183.625 C 171.828125 183.9375 170.792969 183.414062 170.480469 182.453125 C 170.167969 181.492188 170.695312 180.457031 171.65625 180.144531 C 172.613281 179.832031 173.648438 180.359375 173.960938 181.320312 C 174.273438 182.28125 173.746094 183.3125 172.785156 183.625 Z M 171.851562 180.75 C 171.222656 180.953125 170.878906 181.628906 171.085938 182.257812 C 171.289062 182.882812 171.964844 183.226562 172.589844 183.023438 C 173.21875 182.820312 173.5625 182.144531 173.359375 181.515625 C 173.152344 180.890625 172.476562 180.546875 171.851562 180.75 Z M 171.851562 180.75 " fill-opacity="1" fill-rule="nonzero"/></g></g></g><g clip-path="url(#03dcdf32e1)"><g clip-path="url(#8617772ea1)"><g clip-path="url(#1eec3c2a8e)"><path fill="#f97316" d="M 163.828125 173.257812 C 162.664062 173.636719 161.410156 172.996094 161.03125 171.832031 C 160.652344 170.667969 161.292969 169.410156 162.457031 169.03125 C 163.621094 168.652344 164.875 169.292969 165.253906 170.457031 C 165.632812 171.621094 164.992188 172.878906 163.828125 173.257812 Z M 162.652344 169.632812 C 161.820312 169.90625 161.363281 170.804688 161.632812 171.632812 C 161.902344 172.464844 162.800781 172.921875 163.632812 172.652344 C 164.464844 172.382812 164.921875 171.484375 164.652344 170.652344 C 164.382812 169.820312 163.484375 169.363281 162.652344 169.632812 Z M 162.652344 169.632812 " fill-opacity="1" fill-rule="nonzero"/></g></g></g><g clip-path="url(#f73c6e6c95)"><g clip-path="url(#4fc66f675a)"><g clip-path="url(#7583da6aba)"><path fill="#f97316" d="M 200.546875 180.703125 C 200.449219 181.246094 200.863281 181.753906 201.414062 181.769531 C 201.855469 181.789062 202.242188 181.484375 202.335938 181.050781 C 202.660156 179.5 203.457031 178.769531 204.398438 178.074219 C 204.5625 178.121094 204.632812 178.121094 204.703125 178.125 L 204.449219 180.96875 C 204.21875 183.53125 206.023438 185.8125 208.558594 186.1875 C 208.601562 186.191406 209.34375 186.296875 209.308594 186.289062 C 211.867188 186.644531 214.246094 184.933594 214.726562 182.390625 L 215.1875 179.933594 C 215.75 180.734375 216.152344 181.597656 216.0625 182.957031 C 216.035156 183.398438 216.324219 183.792969 216.75 183.898438 C 217.285156 184.03125 217.824219 183.65625 217.882812 183.109375 C 218.070312 181.222656 217.519531 179.675781 216.199219 178.390625 C 216.304688 177.714844 215.878906 177.085938 215.246094 176.90625 C 214.917969 176.25 214.332031 175.785156 213.617188 175.625 C 213.25 175.546875 212.871094 175.472656 212.484375 175.402344 L 212.53125 175.066406 C 212.730469 175.09375 213.375 175.183594 213.34375 175.179688 C 214.378906 175.324219 215.347656 174.644531 215.578125 173.632812 C 216.339844 173.566406 216.964844 172.984375 217.074219 172.210938 C 217.179688 171.4375 216.734375 170.707031 216.023438 170.441406 C 216.078125 169.40625 215.332031 168.484375 214.289062 168.339844 C 212.894531 168.144531 210.164062 167.765625 208.6875 167.5625 C 207.644531 167.417969 206.675781 168.105469 206.453125 169.117188 C 205.695312 169.179688 205.066406 169.75 204.960938 170.53125 C 204.84375 171.363281 205.371094 172.148438 206.183594 172.359375 C 206.269531 172.382812 206.378906 172.34375 206.425781 172.234375 C 206.464844 172.148438 206.40625 172.417969 206.839844 169.347656 C 206.839844 169.347656 206.839844 169.34375 206.839844 169.34375 L 206.839844 169.332031 C 206.960938 168.464844 207.765625 167.859375 208.628906 167.980469 L 213.523438 168.660156 C 214.375 168.777344 214.996094 169.5625 214.871094 170.460938 C 214.867188 170.507812 214.929688 170.046875 214.480469 173.3125 C 214.359375 174.175781 213.558594 174.785156 212.691406 174.664062 C 211.609375 174.511719 208.796875 174.121094 207.796875 173.984375 C 207.480469 173.941406 207.191406 173.804688 206.957031 173.59375 C 206.871094 173.515625 206.734375 173.523438 206.65625 173.609375 C 206.578125 173.695312 206.585938 173.832031 206.671875 173.910156 C 207.203125 174.386719 207.789062 174.402344 207.839844 174.417969 L 207.785156 174.789062 C 207.640625 174.777344 207.496094 174.765625 207.351562 174.757812 C 206.570312 174.710938 205.859375 175.042969 205.386719 175.597656 C 204.5625 175.167969 203.554688 175.703125 203.441406 176.621094 C 201.824219 177.503906 200.875 178.839844 200.546875 180.703125 Z M 205.855469 169.777344 C 206.015625 169.65625 206.195312 169.578125 206.382812 169.546875 L 206.0625 171.867188 C 205.230469 171.46875 205.125 170.324219 205.855469 169.777344 Z M 217.460938 183.066406 C 217.429688 183.355469 217.144531 183.558594 216.851562 183.488281 C 216.625 183.429688 216.46875 183.21875 216.484375 182.984375 C 216.59375 181.355469 216.035156 180.351562 215.351562 179.441406 C 215.648438 179.328125 215.894531 179.113281 216.046875 178.835938 C 217.167969 179.996094 217.628906 181.382812 217.460938 183.066406 Z M 215.785156 178.3125 C 215.707031 178.875 215.152344 179.222656 214.621094 179.070312 L 214.753906 178.351562 C 214.824219 177.988281 214.804688 177.628906 214.714844 177.289062 C 214.863281 177.265625 214.980469 177.269531 215.058594 177.289062 C 215.53125 177.386719 215.851562 177.835938 215.785156 178.3125 Z M 214.9375 173.097656 L 215.257812 170.78125 C 216.316406 171.285156 216.125 172.890625 214.9375 173.097656 Z M 207.328125 175.179688 C 210.335938 175.351562 213.003906 175.980469 212.820312 175.941406 C 213.457031 176.082031 213.984375 176.550781 214.222656 177.144531 C 214.464844 177.734375 214.339844 178.210938 214.339844 178.273438 L 213.597656 182.214844 C 213.164062 184.535156 210.996094 186.097656 208.65625 185.773438 L 208.621094 185.769531 C 206.304688 185.425781 204.660156 183.34375 204.867188 181.003906 L 205.230469 177.011719 C 205.328125 175.941406 206.269531 175.117188 207.328125 175.179688 Z M 205.136719 175.949219 C 204.960938 176.25 204.84375 176.597656 204.808594 176.972656 L 204.742188 177.703125 C 204.214844 177.6875 203.785156 177.222656 203.863281 176.664062 C 203.945312 176.074219 204.570312 175.703125 205.136719 175.949219 Z M 203.46875 177.089844 C 203.542969 177.402344 203.722656 177.675781 203.976562 177.863281 C 203.066406 178.558594 202.257812 179.371094 201.921875 180.964844 C 201.871094 181.195312 201.664062 181.355469 201.429688 181.347656 C 201.128906 181.335938 200.910156 181.066406 200.960938 180.777344 C 201.261719 179.09375 202.058594 177.914062 203.46875 177.089844 Z M 203.46875 177.089844 " fill-opacity="1" fill-rule="nonzero"/></g></g></g><g clip-path="url(#4d836fa1a6)"><g clip-path="url(#5a463e9a26)"><g clip-path="url(#7bc154be34)"><path fill="#f97316" d="M 212.230469 171.359375 L 212.550781 171.402344 C 212.816406 171.441406 213.0625 171.253906 213.097656 170.992188 L 213.171875 170.464844 C 213.207031 170.203125 213.023438 169.960938 212.757812 169.925781 L 212.4375 169.878906 C 212.175781 169.84375 211.929688 170.027344 211.894531 170.289062 L 211.820312 170.8125 C 211.785156 171.078125 211.96875 171.324219 212.230469 171.359375 Z M 212.230469 171.359375 " fill-opacity="1" fill-rule="nonzero"/></g></g></g><g clip-path="url(#da1baf9c9e)"><g clip-path="url(#b8f8eb8e63)"><g clip-path="url(#a970387eb0)"><path fill="#f97316" d="M 209.339844 169.449219 L 209.019531 169.40625 C 208.757812 169.371094 208.515625 169.554688 208.480469 169.816406 L 208.40625 170.339844 C 208.371094 170.605469 208.554688 170.847656 208.816406 170.886719 L 209.136719 170.929688 C 209.402344 170.96875 209.644531 170.78125 209.683594 170.519531 L 209.753906 169.992188 C 209.789062 169.730469 209.605469 169.488281 209.339844 169.449219 Z M 209.339844 169.449219 " fill-opacity="1" fill-rule="nonzero"/></g></g></g><g clip-path="url(#60791e409b)"><g clip-path="url(#5cfc2ae354)"><g clip-path="url(#ecb6d9205a)"><path fill="#f97316" d="M 211.359375 172.679688 L 209.621094 172.4375 C 209.503906 172.421875 209.398438 172.503906 209.382812 172.617188 C 209.367188 172.734375 209.449219 172.839844 209.5625 172.855469 L 211.300781 173.097656 C 211.414062 173.113281 211.523438 173.035156 211.539062 172.917969 C 211.554688 172.800781 211.472656 172.695312 211.359375 172.679688 Z M 211.359375 172.679688 " fill-opacity="1" fill-rule="nonzero"/></g></g></g><g clip-path="url(#2b5f5f985a)"><g clip-path="url(#0275afe0d0)"><g clip-path="url(#f514ab30ad)"><path fill="#f97316" d="M 206.96875 179.148438 C 208.683594 177.628906 211.027344 177.910156 212.074219 179.84375 C 212.109375 179.902344 212.167969 179.941406 212.234375 179.953125 C 212.402344 179.976562 212.53125 179.792969 212.449219 179.640625 C 211.253906 177.441406 208.585938 177.152344 206.691406 178.832031 C 206.601562 178.90625 206.59375 179.042969 206.671875 179.128906 C 206.75 179.214844 206.882812 179.222656 206.96875 179.148438 Z M 206.96875 179.148438 " fill-opacity="1" fill-rule="nonzero"/></g></g></g><g clip-path="url(#29d242faa8)"><g clip-path="url(#0686abe030)"><g clip-path="url(#d25e44b3cd)"><path fill="#f97316" d="M 207.328125 179.691406 C 207.242188 179.765625 207.230469 179.902344 207.308594 179.988281 C 207.386719 180.074219 207.519531 180.085938 207.609375 180.007812 C 208.832031 178.925781 210.484375 179.128906 211.226562 180.496094 C 211.28125 180.597656 211.410156 180.636719 211.515625 180.582031 C 211.617188 180.527344 211.65625 180.398438 211.597656 180.292969 C 210.71875 178.671875 208.738281 178.441406 207.328125 179.691406 Z M 207.328125 179.691406 " fill-opacity="1" fill-rule="nonzero"/></g></g></g><g clip-path="url(#af0cf381e0)"><g clip-path="url(#7a6587db12)"><g clip-path="url(#757e74f86a)"><path fill="#f97316" d="M 207.9375 180.554688 C 207.851562 180.628906 207.84375 180.765625 207.921875 180.851562 C 207.996094 180.9375 208.132812 180.945312 208.21875 180.871094 C 208.953125 180.21875 209.953125 180.328125 210.40625 181.160156 C 210.460938 181.261719 210.589844 181.300781 210.691406 181.246094 C 210.796875 181.191406 210.832031 181.0625 210.777344 180.957031 C 210.195312 179.886719 208.878906 179.71875 207.9375 180.554688 Z M 207.9375 180.554688 " fill-opacity="1" fill-rule="nonzero"/></g></g></g><g clip-path="url(#862edbae99)"><g clip-path="url(#0dbae100e2)"><g clip-path="url(#d0f945da65)"><path fill="#f97316" d="M 209.300781 181.128906 C 209.023438 181.089844 208.765625 181.285156 208.730469 181.5625 C 208.691406 181.839844 208.882812 182.09375 209.160156 182.132812 C 209.4375 182.171875 209.695312 181.976562 209.734375 181.699219 C 209.773438 181.421875 209.578125 181.167969 209.300781 181.128906 Z M 209.300781 181.128906 " fill-opacity="1" fill-rule="nonzero"/></g></g></g><g clip-path="url(#73718c4809)"><path fill="#f97316" d="M 174.6875 162.1875 C 174.597656 162.425781 174.59375 162.777344 175.097656 163.117188 C 175.238281 163.210938 175.363281 163.203125 175.457031 163.144531 C 175.59375 163.058594 175.644531 162.882812 175.679688 162.820312 C 175.832031 162.5625 176.09375 162.394531 176.285156 162.371094 C 176.347656 162.445312 176.414062 162.511719 176.480469 162.5625 C 176.476562 162.574219 176.464844 162.695312 176.460938 162.707031 C 176.394531 162.957031 176.183594 163.191406 175.960938 163.296875 C 175.878906 163.332031 175.773438 163.382812 175.699219 163.503906 C 175.660156 163.578125 175.636719 163.699219 175.738281 163.851562 C 175.976562 164.1875 176.292969 164.398438 176.675781 164.246094 C 177.226562 164.023438 177.621094 163.542969 177.714844 162.988281 C 177.71875 162.980469 177.71875 162.972656 177.71875 162.964844 C 178.683594 162.90625 179.34375 162.109375 179.246094 161.175781 C 179.203125 160.753906 179.035156 160.578125 178.972656 160.421875 C 178.964844 160.410156 178.957031 160.40625 178.949219 160.394531 C 178.964844 160.300781 178.96875 160.203125 178.945312 160.097656 C 179.296875 159.792969 180.378906 158.859375 180.3125 158.914062 C 180.457031 159.023438 180.570312 159.082031 180.601562 159.097656 C 180.632812 161.9375 180.554688 161.890625 180.671875 162.007812 C 180.703125 162.054688 180.757812 162.09375 180.816406 162.101562 L 183.882812 162.546875 C 183.25 162.542969 183.25 162.527344 183.179688 162.566406 C 181.652344 163.398438 180.804688 164.871094 180.667969 166.476562 C 180.664062 166.558594 180.707031 166.636719 180.777344 166.675781 C 181.039062 166.8125 181.292969 166.882812 181.582031 166.914062 C 181.65625 168.046875 182.113281 169.046875 182.816406 169.726562 C 180.4375 169.816406 178.679688 170.125 178.679688 170.492188 C 178.679688 170.925781 181.128906 171.28125 184.152344 171.28125 C 188.367188 171.28125 191.15625 170.589844 188.714844 170.054688 C 189.742188 169.25 190.390625 167.957031 190.378906 166.5625 C 190.636719 166.496094 190.839844 166.402344 190.96875 166.324219 C 191.039062 166.28125 191.078125 166.203125 191.066406 166.121094 C 190.847656 164.496094 189.914062 163.09375 188.367188 162.339844 C 188.289062 162.300781 188.226562 162.328125 188.035156 162.332031 C 188.84375 162.015625 189.652344 161.699219 190.457031 161.382812 C 190.535156 161.355469 190.585938 161.277344 190.589844 161.195312 L 190.597656 159.851562 C 191.503906 160.636719 192.066406 161.132812 192.171875 161.207031 C 192.144531 161.3125 192.148438 161.414062 192.164062 161.507812 C 192.039062 161.636719 191.964844 161.878906 191.964844 161.882812 C 191.605469 162.761719 192.117188 163.890625 193.230469 164.0625 C 193.234375 164.21875 193.242188 164.375 193.246094 164.410156 C 193.351562 165 193.730469 165.46875 194.296875 165.695312 C 194.679688 165.847656 194.992188 165.644531 195.226562 165.296875 C 195.363281 165.105469 195.332031 164.890625 194.996094 164.742188 C 194.789062 164.648438 194.570312 164.40625 194.503906 164.160156 C 194.5 164.140625 194.46875 163.867188 194.460938 163.808594 C 194.558594 163.746094 194.503906 163.78125 194.585938 163.71875 C 194.65625 163.746094 194.726562 163.769531 194.753906 163.78125 C 194.988281 163.90625 195.167969 164.171875 195.214844 164.402344 C 195.230469 164.488281 195.253906 164.609375 195.339844 164.691406 C 195.441406 164.789062 195.570312 164.800781 195.703125 164.746094 C 196.15625 164.5625 196.355469 164.289062 196.300781 163.921875 C 196.207031 163.332031 195.828125 162.84375 195.273438 162.609375 C 195.386719 162.09375 195.277344 161.582031 194.960938 161.207031 C 194.695312 160.902344 194.207031 160.644531 193.71875 160.644531 C 193.710938 160.644531 193.703125 160.648438 193.691406 160.648438 C 193.558594 160.488281 193.363281 160.40625 193.140625 160.414062 C 193.039062 160.171875 193.042969 160.273438 190.613281 158.140625 L 190.636719 154.941406 C 190.761719 154.816406 190.6875 154.621094 190.527344 154.597656 C 190.527344 154.597656 188.851562 154.316406 187.347656 154.070312 C 187.347656 153.902344 187.335938 153.734375 187.308594 153.554688 C 187.335938 153.390625 187.347656 153.226562 187.347656 153.0625 C 188.917969 153.046875 191.289062 152.910156 191.429688 152.265625 C 191.441406 152.253906 191.457031 152.242188 191.464844 152.226562 C 191.488281 152.179688 191.492188 152.125 191.476562 152.078125 C 191.464844 151.921875 191.5 151.128906 191.5 151.058594 C 191.480469 149.035156 190.597656 147.078125 189.199219 145.949219 C 186.957031 144.125 183.351562 144.734375 181.660156 147 C 180.867188 148.0625 180.539062 149.421875 180.324219 150.609375 C 180.304688 150.71875 180.25 151.484375 180.25 151.761719 C 179.902344 152.613281 183.21875 152.890625 184.140625 152.960938 C 184.140625 153.132812 184.152344 153.308594 184.183594 153.488281 C 184.152344 153.640625 184.136719 153.789062 184.132812 153.945312 C 182.9375 154.34375 180.742188 155.09375 180.742188 155.09375 C 180.652344 155.125 180.59375 155.214844 180.605469 155.308594 C 180.605469 155.316406 180.609375 155.324219 180.609375 155.332031 C 180.570312 155.410156 180.597656 155.347656 180.589844 156.226562 C 180.574219 156.234375 180.554688 156.238281 180.542969 156.253906 C 180.363281 156.46875 179.5625 157 179.609375 157.796875 C 178.09375 159.140625 178.0625 159.089844 177.957031 159.300781 C 177.738281 159.296875 177.546875 159.378906 177.417969 159.539062 C 177.410156 159.535156 177.402344 159.53125 177.394531 159.53125 C 176.96875 159.535156 176.628906 159.710938 176.378906 159.878906 C 176.027344 160.132812 175.78125 160.585938 175.800781 161.167969 C 175.296875 161.308594 174.886719 161.675781 174.6875 162.1875 Z M 180.996094 155.648438 L 186.214844 156.222656 L 186.214844 162.441406 L 186.0625 162.449219 L 181.019531 161.71875 Z M 181.089844 166.371094 C 181.257812 164.917969 182.035156 163.675781 183.328125 162.949219 C 183.375 162.949219 185.125 162.960938 185.171875 162.964844 C 183.957031 163.710938 183.027344 164.914062 182.640625 166.332031 C 182.132812 166.578125 181.5625 166.574219 181.089844 166.371094 Z M 188.335938 169.839844 C 187.027344 170.777344 185.292969 170.6875 184.140625 169.558594 C 183.269531 168.710938 182.914062 167.457031 183.082031 166.289062 C 183.496094 164.929688 184.441406 163.742188 185.898438 163.03125 C 188.113281 162.554688 189.890625 164.242188 189.96875 166.40625 C 190.023438 167.707031 189.457031 169.035156 188.335938 169.839844 Z M 190.640625 166.035156 C 190.5625 166.074219 190.46875 166.113281 190.363281 166.144531 C 190.21875 164.566406 189.238281 163.25 187.867188 162.753906 L 188.234375 162.730469 C 189.566406 163.398438 190.398438 164.585938 190.640625 166.035156 Z M 190.179688 161.054688 C 189.023438 161.503906 187.867188 161.957031 186.710938 162.410156 L 186.675781 162.414062 L 186.679688 156.175781 L 190.226562 155.175781 L 190.210938 157.515625 C 190.058594 157.183594 189.851562 157.003906 189.695312 156.832031 C 189.574219 156.707031 189.441406 156.566406 189.253906 156.601562 C 189.0625 156.636719 188.984375 156.835938 188.957031 156.898438 C 188.738281 157.449219 188.503906 158.554688 189.011719 159.214844 C 189.109375 159.339844 189.199219 159.378906 189.285156 159.378906 C 189.433594 159.378906 189.640625 159.214844 189.75 159.117188 L 190.191406 159.5 Z M 189.601562 158.695312 C 189.410156 158.886719 189.355469 158.90625 189.316406 158.9375 C 189.011719 158.5 189.09375 157.667969 189.339844 157.054688 C 189.605469 157.324219 189.90625 157.621094 189.925781 158 C 189.933594 158.261719 189.789062 158.511719 189.601562 158.695312 Z M 194.847656 165.125 C 194.644531 165.394531 194.507812 165.339844 194.449219 165.316406 C 194.019531 165.144531 193.730469 164.789062 193.652344 164.347656 C 193.648438 164.324219 193.640625 164.210938 193.640625 164.082031 C 193.785156 164.070312 193.957031 164.035156 194.074219 163.996094 C 194.074219 164.027344 194.097656 164.226562 194.109375 164.257812 C 194.199219 164.609375 194.476562 164.957031 194.847656 165.125 Z M 195.898438 163.984375 C 195.914062 164.09375 195.890625 164.214844 195.617188 164.335938 C 195.609375 164.296875 195.605469 164.261719 195.585938 164.203125 C 195.457031 163.816406 195.164062 163.511719 194.90625 163.402344 C 194.980469 163.304688 195.09375 163.109375 195.144531 163 C 195.550781 163.179688 195.824219 163.539062 195.898438 163.984375 Z M 194.652344 161.472656 C 195.265625 162.199219 194.714844 163.738281 193.441406 163.675781 C 192.453125 163.632812 192.035156 162.640625 192.378906 161.953125 C 192.695312 162.167969 193.066406 162.171875 193.445312 161.960938 C 193.785156 161.769531 193.945312 161.484375 193.945312 161.074219 C 194.167969 161.121094 194.480469 161.28125 194.652344 161.472656 Z M 193.453125 161.210938 C 193.328125 161.714844 192.488281 161.78125 192.5625 161.332031 C 192.582031 161.332031 192.605469 161.324219 192.625 161.324219 C 192.875 161.292969 193.078125 161.148438 193.164062 160.875 C 193.167969 160.855469 193.175781 160.839844 193.183594 160.820312 C 193.394531 160.824219 193.5 161.027344 193.453125 161.210938 Z M 192.730469 160.839844 C 192.636719 160.949219 192.46875 160.9375 192.386719 160.863281 L 190.035156 158.824219 C 190.121094 158.714844 190.242188 158.488281 190.273438 158.390625 L 192.710938 160.5 C 192.796875 160.570312 192.820312 160.734375 192.730469 160.839844 Z M 184.175781 152.511719 C 184.171875 152.527344 184.164062 152.539062 184.164062 152.554688 C 181.808594 152.367188 180.804688 152.027344 180.648438 151.894531 C 180.714844 151.832031 180.851562 151.789062 180.941406 151.761719 C 182.972656 151.144531 190.027344 151.453125 191 152.199219 C 191.003906 152.203125 191.003906 152.203125 191.003906 152.207031 C 190.777344 152.363281 189.707031 152.628906 187.335938 152.652344 C 187.335938 152.636719 187.328125 152.617188 187.328125 152.597656 C 187.308594 152.445312 187.285156 152.292969 187.25 152.140625 C 187.230469 152.066406 187.171875 152.007812 187.097656 151.992188 C 186.449219 151.839844 186.191406 151.847656 186.144531 151.84375 C 185.628906 151.796875 185.675781 151.808594 185.285156 151.839844 C 185.179688 151.847656 184.917969 151.835938 184.402344 151.992188 C 184.339844 152.011719 184.289062 152.058594 184.269531 152.121094 C 184.222656 152.25 184.195312 152.378906 184.175781 152.511719 Z M 184.542969 153.03125 C 184.539062 152.824219 184.5625 152.574219 184.625 152.355469 C 185.289062 152.175781 186.03125 152.175781 186.878906 152.359375 C 186.929688 152.601562 186.945312 152.851562 186.945312 153.035156 C 186.871094 153.019531 186.34375 152.933594 186.324219 152.933594 C 185.695312 152.859375 185.292969 152.890625 184.851562 152.972656 C 184.75 152.992188 184.644531 153.003906 184.542969 153.03125 Z M 186.875 154.714844 C 186.199219 154.839844 185.445312 154.835938 184.621094 154.707031 C 184.617188 154.667969 184.425781 154.054688 184.617188 153.433594 C 185.285156 153.253906 186.027344 153.253906 186.875 153.4375 C 186.972656 153.898438 186.957031 154.261719 186.875 154.714844 Z M 180.726562 150.683594 C 180.933594 149.539062 181.246094 148.238281 181.988281 147.246094 C 183.546875 145.160156 186.886719 144.597656 188.941406 146.265625 C 190.246094 147.320312 191.070312 149.160156 191.09375 151.0625 C 191.09375 151.0625 191.070312 151.652344 191.066406 151.769531 C 189.398438 150.957031 182.40625 150.742188 180.671875 151.429688 C 180.6875 151.121094 180.714844 150.738281 180.726562 150.683594 Z M 184.144531 154.371094 C 184.167969 154.578125 184.199219 154.683594 184.207031 154.726562 C 183.726562 154.800781 183.425781 154.910156 183.425781 155.03125 C 183.425781 155.261719 184.496094 155.453125 185.816406 155.453125 C 187.136719 155.453125 188.207031 155.261719 188.207031 155.03125 C 188.207031 154.902344 187.847656 154.78125 187.292969 154.703125 C 187.304688 154.628906 187.3125 154.585938 187.328125 154.480469 C 188.128906 154.613281 188.976562 154.753906 189.585938 154.855469 L 186.398438 155.800781 L 181.707031 155.199219 C 182.414062 154.957031 183.425781 154.613281 184.144531 154.371094 Z M 176.523438 163.867188 C 176.464844 163.890625 176.328125 163.945312 176.117188 163.671875 C 176.148438 163.660156 176.207031 163.632812 176.238281 163.613281 C 176.75 163.308594 176.835938 162.851562 176.859375 162.808594 C 176.867188 162.8125 177.042969 162.882812 177.058594 162.886719 C 177.09375 162.898438 177.28125 162.945312 177.308594 162.949219 C 177.214844 163.371094 176.929688 163.703125 176.523438 163.867188 Z M 180.480469 156.878906 L 180.496094 158.542969 C 180.273438 158.367188 180.070312 158.132812 180.027344 157.851562 C 179.941406 157.339844 180.453125 156.921875 180.480469 156.878906 Z M 179.722656 158.242188 C 179.746094 158.296875 179.777344 158.339844 179.808594 158.390625 C 179.835938 158.429688 179.859375 158.492188 180 158.644531 C 178.714844 159.75 178.703125 159.785156 178.628906 159.816406 C 178.554688 159.84375 178.46875 159.824219 178.417969 159.765625 C 178.371094 159.699219 178.289062 159.65625 178.308594 159.539062 C 178.3125 159.492188 178.367188 159.445312 179.722656 158.242188 Z M 177.910156 159.707031 C 177.980469 159.890625 177.953125 159.84375 178.105469 160.03125 C 178.210938 160.152344 178.378906 160.234375 178.554688 160.238281 C 178.558594 160.292969 178.554688 160.351562 178.519531 160.398438 C 178.519531 160.398438 178.519531 160.398438 178.519531 160.402344 C 178.359375 160.636719 177.761719 160.503906 177.660156 160.097656 C 177.632812 159.992188 177.710938 159.722656 177.910156 159.707031 Z M 176.613281 160.214844 C 176.820312 160.078125 176.996094 159.996094 177.167969 159.960938 C 177.167969 160.371094 177.328125 160.652344 177.660156 160.84375 C 178.042969 161.0625 178.417969 161.058594 178.730469 160.84375 C 178.75 160.875 178.761719 160.902344 178.765625 160.914062 C 179.066406 161.753906 178.484375 162.605469 177.535156 162.5625 C 176.289062 162.507812 175.773438 160.828125 176.613281 160.214844 Z M 175.066406 162.335938 C 175.21875 161.957031 175.503906 161.6875 175.855469 161.574219 C 175.863281 161.605469 175.925781 161.785156 175.9375 161.816406 C 175.949219 161.847656 176.027344 162.007812 176.03125 162.015625 C 175.71875 162.128906 175.417969 162.390625 175.265625 162.734375 C 174.992188 162.53125 175.042969 162.398438 175.066406 162.335938 Z M 175.066406 162.335938 " fill-opacity="1" fill-rule="nonzero"/></g><path fill="#f97316" d="M 185.351562 167.015625 C 185.25 168.160156 185.839844 169.308594 186.886719 169.308594 C 187.824219 169.308594 188.671875 168.296875 188.78125 167.050781 C 188.84375 166.324219 188.652344 165.660156 188.25 165.222656 C 187.207031 164.085938 185.511719 165.160156 185.351562 167.015625 Z M 188.375 167.015625 C 188.285156 168.054688 187.617188 168.898438 186.886719 168.898438 C 186.828125 168.898438 186.773438 168.890625 186.722656 168.882812 C 187.996094 168.125 188.144531 165.902344 186.972656 165.21875 C 187.890625 164.941406 188.460938 165.992188 188.375 167.015625 Z M 188.375 167.015625 " fill-opacity="1" fill-rule="nonzero"/><path fill="#f97316" d="M 182.703125 150.308594 C 183.664062 150.207031 184.5 150.0625 187.035156 150.222656 C 187.769531 150.269531 188.511719 150.3125 189.21875 150.609375 C 189.148438 150.582031 189.621094 148.210938 187.800781 146.730469 C 186.417969 145.609375 184.183594 145.984375 183.136719 147.382812 C 182.652344 148.039062 182.445312 148.863281 182.300781 149.652344 C 182.289062 149.722656 182.238281 150.433594 182.261719 150.429688 C 182.417969 150.386719 182.5625 150.324219 182.703125 150.308594 Z M 183.386719 148.625 C 184.457031 148.253906 186.453125 148.378906 188.261719 148.59375 C 188.390625 149.054688 188.472656 149.53125 188.308594 149.847656 C 186.519531 149.535156 184.6875 149.632812 183.289062 149.792969 C 183.132812 149.472656 183.234375 149.019531 183.386719 148.625 Z M 183.386719 148.625 " fill-opacity="1" fill-rule="nonzero"/><path fill="#f97316" d="M 175.261719 156.628906 C 175.257812 156.742188 175.347656 156.835938 175.460938 156.839844 C 175.503906 156.839844 175.464844 156.839844 177.589844 156.886719 C 177.703125 156.886719 177.792969 156.800781 177.796875 156.6875 C 177.796875 156.574219 177.707031 156.480469 177.59375 156.480469 L 175.472656 156.429688 C 175.363281 156.4375 175.265625 156.519531 175.261719 156.628906 Z M 175.261719 156.628906 " fill-opacity="1" fill-rule="nonzero"/><path fill="#f97316" d="M 176.136719 153.902344 C 176.046875 153.835938 175.917969 153.859375 175.851562 153.953125 C 175.789062 154.042969 175.808594 154.171875 175.902344 154.238281 L 177.835938 155.597656 C 177.925781 155.664062 178.054688 155.640625 178.121094 155.546875 C 178.1875 155.457031 178.164062 155.328125 178.070312 155.261719 Z M 176.136719 153.902344 " fill-opacity="1" fill-rule="nonzero"/><path fill="#f97316" d="M 179.320312 155.050781 C 179.417969 154.996094 179.460938 154.875 179.40625 154.773438 L 178.480469 152.96875 C 178.429688 152.867188 178.304688 152.828125 178.203125 152.878906 C 178.105469 152.929688 178.0625 153.054688 178.117188 153.152344 L 179.042969 154.960938 C 179.09375 155.0625 179.21875 155.101562 179.320312 155.050781 Z M 179.320312 155.050781 " fill-opacity="1" fill-rule="nonzero"/><path fill="#f97316" d="M 185.25 157.113281 L 182.046875 156.6875 C 181.929688 156.671875 181.816406 156.765625 181.816406 156.890625 L 181.785156 160.976562 C 181.785156 161.074219 181.855469 161.160156 181.953125 161.179688 C 185.292969 161.769531 185.097656 161.738281 185.125 161.738281 C 185.234375 161.738281 185.328125 161.648438 185.332031 161.535156 L 185.429688 157.320312 C 185.433594 157.214844 185.355469 157.125 185.25 157.113281 Z M 184.925781 161.289062 L 182.195312 160.804688 L 182.222656 157.125 L 185.015625 157.496094 Z M 184.925781 161.289062 " fill-opacity="1" fill-rule="nonzero"/></svg>